<?xml version="1.0" encoding="utf-8"?>
<!-- Generator: Adobe Illustrator 19.0.0, SVG Export Plug-In . SVG Version: 6.00 Build 0)  -->
<svg version="1.1" id="Layer_1" xmlns="http://www.w3.org/2000/svg" xmlns:xlink="http://www.w3.org/1999/xlink" x="0px" y="0px"
	 viewBox="-236 403.3 85.5 154.7" style="enable-background:new -236 403.3 85.5 154.7;" xml:space="preserve">
<style type="text/css">
	.st0{fill:#FFFFFF;}
	.st1{fill:#008076;}
</style>
<g id="XMLID_1_">
	<g id="XMLID_73_">
		<path id="XMLID_82_" class="st0" d="M-233.1,416.4c0,0,4.5-3.4,6-4.6c0.4-0.3,0.7-0.6,1.1-0.9c-0.1,0.5-0.3,1-0.4,1.4
			c-1.1,4.7-2.7,9.3-4.2,14c-0.4,1.1-0.7,2.3-1,3.5c-0.6,2.4,3.1,3.4,3.8,1c0.3-0.9,0.5-1.9,0.8-2.8c1.8-5.6,6.5-15.9,8.7-15.8
			s0,3.9-0.7,5.7c-1.4,4-3.1,7.9-4.6,11.9c-0.9,2.4,2.9,3.3,3.8,1c0.7-1.6,1.2-3.3,1.8-4.9c0.3-0.9,0.7-1.8,1-2.6
			c1.1-2.9,2.3-5.7,4-8.2c0.8-1.1,2.6-4.1,4.3-3.6c1.5,0.5-2.9,8.3-3.8,10c-1.5,3-3.9,7.7-0.5,10.2c1.8,1.3,4.7,0.1,6.4-0.9
			c1.7-1.1,3.2-2.5,4.7-3.9c0.9,2.6,3.1,5,6,5.1c3.4,0.2,6.3-1.7,8.4-4.1c0.1,0.9,0.4,1.6,0.9,2.3c1.9,3.4,7.8,0.9,9.8-1.6
			c2-2.6,5.6-10.2,7.2-14.7c0.2,0,0.5,0,0.7,0c0.8,0.1,1.7,0.1,2.5,0.1c-0.5,0.6-1,1.3-1.5,1.9c-2.2,3.1-4.8,7.9-3.9,11.9
			c0.9,3.7,4.5,5.2,8.1,4.1c1.9-0.5,2.9-1.6,4.6-2.6c2.4-1.4,4.8-2.7,7.4-3.7c2.2-0.8,1.2-4.4-1-3.5c-3.4,1.3-6.6,3-9.6,4.9
			c-1.2,0.8-1.7,1.2-3.3,1.3c-2,0.2-2.8-1.9-2.6-3.3c0.6-3.6,2.8-6.7,5.1-9.4c0.9-1,1.8-2,2.9-2.6c2.5-1.2,4.6-2.8,4.8-4.7
			c-0.1-1.1-0.9-1.8-2.1-1.4c-2.3,0.8-6,2.7-8.5,2.8c-2,0.1-4.2,0-5-1.5s0-2.8,0.5-3.6c0.3-0.5,1.1-1.8-0.8-1.1
			c-1.9,0.8-3.5,1.8-3.9,4.3c-0.4,2.3,0.9,4.1,2.3,4.9c0.5,0.3-3.1,8.6-4.9,11c-1.8,2.5-3,3.6-4.7,4c-0.7,0.2-1.5-0.9-1.6-1.4
			c-0.4-2.1,0.2-3.7,0.7-5.7c1-4.1,2.8-8.4,5.4-12.2c1.3-1.9-2.7-2.1-4.2-0.3c-0.7,0.9,0,0-0.6,0.9c-3.7-2.7-8-3-12-0.5
			c-4.2,2.6-7.1,7.8-7.7,12.7c0,0.3,0,0.7-0.1,1c-0.6,1.8-4.6,4.2-7,5.5c-0.3,0.2-0.9,0.5-1.2-0.1c-0.2-0.6,0.6-2,1-3
			c1.4-3,3.1-5.9,4.5-9c1-2.3,1.8-4.8,0.6-7.2c-1.1-2-3.8-2.1-5.6-1.2c-1.3,0.6-2.4,1.5-3.4,2.5c-0.4-1.5-1.3-2.7-3.4-2.5
			c-1.9,0.2-3.5,1.5-4.9,3.2c0-0.5,0-0.9,0-1.4c-0.2-2.1-1.8-3.3-3.9-2.7c-1.5,0.4-2.8,1.8-3.9,2.7c-1.7,1.4-3.4,2.8-5.2,4
			C-237.2,414.5-235.4,417.5-233.1,416.4z M-196.7,417.8c1.8-3.7,5.9-7.8,10.3-6.1c0.2,0.1,1.2,0.7,1.3,1.4c0.1,0.7-2.1,6.1-2.7,7.4
			c-0.6,1.5-1.1,2.6-3.5,4.9c-2.4,2.3-5.4,1.6-6.3-1.3C-198.3,422-197.6,419.6-196.7,417.8z"/>
		<path id="XMLID_77_" class="st0" d="M-174.9,431.9c-1,0-4.3,4.7-8.5,4.7c-2.5,0-4.2-2.8-5.1-2.8s-4.3,2.8-7.3,2.8
			s-5.7-2.2-6.8-2.1c-2.3,0.1-5.5,2.1-7.3,2.1c-3.4,0-4.9-2.2-7.7-2.2c-2.9,0-5,2.2-7.2,2.2s-7,0-7,0c-1.5,0-2.7,1.2-2.7,2.7v31.6
			c0,1.5,1.2,2.7,2.7,2.7h77.4c1.5,0,2.7-1.2,2.7-2.7v-31.6c0-1.5-1.2-2.7-2.7-2.7h-2.7c0,0-6.3,0-9.1,0
			C-172.2,436.6-173.9,431.9-174.9,431.9z M-207.2,444.8c0,0.2,0,1.9-0.6,2.6l-15.4,17.4h14.5c0.8,0,1.4,0.6,1.4,1.3v2.3
			c0,0.7-0.6,1.3-1.4,1.3h-19.2c-0.8,0-1.4-0.6-1.4-1.3v-2.3c0-0.2,0-1.9,0.6-2.5l15.4-17.5h-14.6c-0.8,0-1.4-0.6-1.4-1.3v-2.3
			c0-0.7,0.6-1.3,1.4-1.3h19.3c0.8,0,1.4,0.6,1.4,1.3V444.8z M-182.3,444.8c0,0.7-0.6,1.3-1.4,1.3h-15.8v6.9h7.1
			c0.8,0,1.4,0.6,1.4,1.3v2.3c0,0.7-0.6,1.3-1.4,1.3h-7.1v6.9h15.7c0.8,0,1.4,0.6,1.4,1.3v2.3c0,0.7-0.6,1.3-1.4,1.3H-203
			c-0.8,0-1.4-0.6-1.4-1.3v-26c0-0.7,0.6-1.3,1.4-1.3h19.3c0.8,0,1.4,0.6,1.4,1.3V444.8z M-157.1,442.4v2.3c0,0.7-0.6,1.3-1.4,1.3
			h-15.7v6.9h7.1c0.8,0,1.4,0.6,1.4,1.3v2.3c0,0.7-0.6,1.3-1.4,1.3h-7.1v6.9h15.7c0.8,0,1.4,0.6,1.4,1.3v2.3c0,0.7-0.6,1.3-1.4,1.3
			h-19.3c-0.8,0-1.4-0.6-1.4-1.3v-26c0-0.7,0.6-1.3,1.4-1.3h19.3C-157.7,441.1-157.1,441.7-157.1,442.4z"/>
		<path id="XMLID_74_" class="st0" d="M-170.2,479.3c3.9-1.2,8.1,0.9,12,0.8c1.7,0,1.7-2.5,0-2.5c-4,0.1-7.8-1.5-11.9-0.9
			c-4.3,0.6-6.1,5.6-3.1,8.7c1.6,1.7,3.9,2.4,6.1,3.4c1.5,0.6,3,1.4,3.2,3.1c0.2,1.7-1.3,2.9-2.7,3.7c-2.2,1.2-4.9,1.8-7.7,2
			c0.6-0.7,1-1.5,1-2.4c0.4-4.7-3.9-6.2-8.1-7c2-1.6,3.1-4.2,1.8-6.9c-1.7-3.5-6.4-4.7-10.2-4.5c-4.5,0.3-4.7,4.3-4.2,7.6
			c0.4,2.9,0.5,5.9-0.1,8.8c-0.3,1.4-0.7,2.8-1.7,3.9c-1.1,1.2-3.7,1.1-4.3-0.5c-0.6-1.6,0-3.7,0.2-5.4c0.3-2.7,0.1-5.4-0.6-8
			c-1.2-4.3-5.6-7.1-10.2-5.4c-4.6,1.7-4,6.3-4.2,10.2c-0.2,2.9-0.8,6.5-3.5,8.4c-2.8,2-6.2,0.1-7.2-2.6c-1.4-3.1-1.6-6.5-0.8-10.1
			c0.5-2.2,1.1-4.1,1.7-5.6c0.6-1.5-1.9-2.1-2.6-0.7c-0.6,1.5-1.2,3.3-1.6,5.4c-0.5,2.7-0.7,4.9-0.4,7.5c0.5,3.9,1.8,7.6,6,9.1
			c4.5,1.6,8.2-2,9.7-5.6c1.1-2.7,0.8-5.1,1.2-6.4c0.1-0.6,8.5-3.9,9-3.8c0.6,0.1,0.9,5.3,0.7,7.6c-0.3,3.3-1.3,7.4,2.9,8.9
			c7.6,2.6,8.7-8,8.5-12.4c0-1.2-0.2-2.5-0.4-3.7c-0.3-2.1-0.7-4.5,2.2-4.7c2.1-0.1,4.6,0.5,6.2,1.7c2.9,2.3,0.5,6.1-2.7,6.5
			c-1.4,0.2-2,2.2-0.4,2.4c3.3,0.6,8.5,0.3,10,3.9c1,2.4-1.7,3.6-4.3,4c-1.4,0-2.7-0.1-4-0.2c-1.6-0.1-1.7,2-0.4,2.4
			c1.4,0.4,3.3,0.3,5.1,0.2c4.3-0.3,8.7-0.3,12.7-1.7c2.2-0.8,4.5-2.2,5.3-4.4c0.9-2.3,0.2-4.8-1.8-6.2s-4.5-2-6.7-3.2
			C-172.5,483.3-173,480.1-170.2,479.3z M-212.4,484.5c-0.5-0.3,0.1-3.1,1.9-4.3c2.6-1.7,5.7,0.3,5.8,1.2
			C-204.5,481.7-212,484.7-212.4,484.5z"/>
	</g>
	<g id="XMLID_71_">
		<rect id="XMLID_72_" x="-234.5" y="513" class="st1" width="82.8" height="1"/>
	</g>
	<path id="XMLID_64_" class="st0" d="M-205.1,548.1c-0.6-0.7-0.9-1.6-0.9-2.8s0.2-2.3,0.5-3.4c0.3-1.1,0.7-2.1,1.3-2.9
		c0.5-0.8,1.2-1.5,1.9-2s1.5-0.8,2.3-0.8c1,0,1.8,0.3,2.4,1c0.6,0.7,0.9,1.6,0.9,2.7c0,1.1-0.2,2.2-0.5,3.3
		c-0.3,1.1-0.7,2.1-1.2,2.9c-0.5,0.9-1.2,1.6-1.9,2.1s-1.5,0.8-2.3,0.8C-203.7,549.1-204.5,548.8-205.1,548.1 M-205,534.3
		c-1.2,0.7-2.3,1.6-3.2,2.7c-0.9,1.1-1.6,2.4-2,3.9c-0.5,1.5-0.7,3-0.7,4.5c0,1,0.1,1.9,0.4,2.7s0.7,1.5,1.3,2.1
		c0.6,0.6,1.2,1.1,2,1.4c0.8,0.3,1.6,0.5,2.6,0.5c1.2,0,2.3-0.3,3.3-0.9c1-0.6,1.9-1.3,2.6-2.3c0,2.1,1.3,3.2,3.9,3.2
		c0.6,0,1.1,0,1.6-0.1c0.5-0.1,1-0.2,1.5-0.3l0.7-2.7c-0.3,0.1-0.5,0.2-0.7,0.2c-0.2,0-0.4,0.1-0.7,0.1c-0.8,0-1.1-0.4-1.1-1.2
		c0-0.4,0.1-0.9,0.3-1.6c0.2-0.7,0.4-1.5,0.7-2.4l2.8-10.6c-0.4,0.1-0.8,0.2-1.3,0.3c-0.5,0.1-1.1,0.1-1.8,0.1h-1.8l-1,3.5
		c-0.3-1.3-0.9-2.2-1.8-2.9c-0.9-0.7-2.1-1-3.5-1C-202.4,533.2-203.8,533.6-205,534.3 M-162.6,548.7c-0.4-0.2-0.8-0.5-1.1-0.8
		s-0.5-0.7-0.7-1.2c-0.1-0.4-0.2-0.9-0.2-1.4c0-1.1,0.1-2.2,0.4-3.3c0.3-1.1,0.7-2.1,1.2-2.9c0.5-0.9,1.1-1.6,1.8-2.1
		c0.7-0.5,1.5-0.8,2.3-0.8c1,0,1.8,0.3,2.4,1c0.6,0.7,0.9,1.6,1,2.8c0,1.2-0.1,2.3-0.4,3.4c-0.3,1.1-0.7,2.1-1.2,2.9s-1.1,1.5-1.8,2
		c-0.7,0.5-1.4,0.8-2.2,0.8C-161.7,549.1-162.1,548.9-162.6,548.7 M-159.9,534c-0.9,0.5-1.7,1.2-2.4,2l0.7-2.7
		c-0.4,0.1-1.1,0.2-1.8,0.3c-0.8,0.1-1.6,0.1-2.5,0.1h-3.3l-0.7,2.8h2.1c0.2,0,0.4,0.1,0.4,0.2c0.1,0.2,0,0.4-0.1,0.9l-4.6,16.7
		c-0.1,0.4-0.2,0.7-0.4,0.8c-0.1,0.1-0.3,0.2-0.5,0.2h-1.6l-0.7,2.8h9.7l0.7-2.8h-1.9c-0.2,0-0.3-0.1-0.4-0.2s-0.1-0.4,0.1-0.8
		l1.6-6c0.3,1.2,0.9,2.1,1.9,2.8c0.9,0.7,2.1,1.1,3.6,1.1s2.8-0.3,4-1s2.2-1.5,3-2.6c0.8-1.1,1.5-2.4,1.9-3.8
		c0.4-1.4,0.7-2.9,0.7-4.5c0-1-0.1-1.9-0.4-2.7c-0.3-0.8-0.7-1.6-1.2-2.2c-0.6-0.6-1.2-1.1-2-1.5c-0.8-0.3-1.7-0.5-2.7-0.5
		C-158,533.2-159,533.5-159.9,534 M-178.3,534.1c-0.9,0.6-1.7,1.5-2.3,2.6l0.9-3.3c-0.4,0.1-1.1,0.2-1.8,0.3
		c-0.8,0.1-1.6,0.1-2.5,0.1h-3.4l-0.7,2.8h2.1c0.2,0,0.4,0.1,0.4,0.2c0.1,0.2,0,0.4-0.1,0.9l-3.9,14.1h4.9l1.6-5.9
		c0.4-1.6,0.8-3,1.2-4.2c0.4-1.2,0.9-2.2,1.3-3c0.5-0.8,1-1.4,1.6-1.8s1.2-0.6,2-0.6c0.3,0,0.5,0,0.8,0.1c0.2,0.1,0.4,0.2,0.6,0.4
		c-0.6,0.1-1.2,0.4-1.6,0.9c-0.4,0.5-0.6,1-0.6,1.6c0,0.6,0.3,1.2,0.7,1.6c0.4,0.4,1.1,0.6,1.8,0.6c0.5,0,1-0.1,1.5-0.4
		s0.8-0.6,1.2-1c0.3-0.4,0.6-0.9,0.8-1.5c0.2-0.6,0.2-1.2,0.2-1.8c0-1-0.4-1.9-1.1-2.5c-0.7-0.6-1.6-1-2.7-1
		C-176.4,533.1-177.4,533.5-178.3,534.1 M-223.3,527.1c-0.8,0.1-1.6,0.1-2.6,0.1h-3.2l-0.8,2.8h1.9c0.2,0,0.4,0.1,0.4,0.2
		c0,0.1,0,0.4-0.1,0.9l-5.6,20.6h4.9c0.7-2.7,1.4-5,2-7c0.7-1.9,1.4-3.5,2-4.7c0.7-1.2,1.4-2.1,2.1-2.7c0.7-0.6,1.4-0.8,2.2-0.8
		c0.6,0,1,0.2,1.4,0.5c0.4,0.3,0.6,0.8,0.6,1.5c0,0.3-0.1,0.7-0.2,1.3c-0.1,0.6-0.3,1.2-0.5,1.8c-0.2,0.7-0.4,1.4-0.7,2.1
		c-0.2,0.7-0.5,1.4-0.7,2.1c-0.2,0.7-0.4,1.3-0.5,1.9c-0.1,0.6-0.2,1-0.2,1.4c0,1.1,0.3,1.9,1,2.4c0.7,0.5,1.6,0.7,2.8,0.7
		c0.5,0,1.1,0,1.6-0.1c0.5-0.1,1.1-0.2,1.5-0.4l0.7-2.7c-0.5,0.2-0.9,0.3-1.4,0.3c-0.7,0-1.1-0.4-1.1-1.1c0-0.3,0.2-1,0.5-1.9
		c0.3-0.9,0.6-1.9,1-3.1c0.4-1.1,0.7-2.2,1-3.3c0.3-1.1,0.5-1.9,0.5-2.5c0-1.3-0.5-2.3-1.4-3c-0.9-0.7-2-1-3.4-1
		c-1.5,0-2.9,0.4-4,1.1c-1.2,0.8-2.2,1.9-3.2,3.3l3-10.9C-221.9,526.9-222.5,527-223.3,527.1"/>
</g>
</svg>
