<?xml version="1.0" encoding="utf-8"?>
<!-- Generator: Adobe Illustrator 19.0.0, SVG Export Plug-In . SVG Version: 6.00 Build 0)  -->
<svg version="1.1" id="Layer_1" xmlns="http://www.w3.org/2000/svg" xmlns:xlink="http://www.w3.org/1999/xlink" x="0px" y="0px"
	 viewBox="520 421 1600 120" style="enable-background:new 520 421 1600 120;" xml:space="preserve">
<style type="text/css">
	.st0{fill:#00BAAC;}
</style>
<path class="st0" d="M-153.7,483.4l61.1-8.3c28.1-3.9,57.1-3.9,85.4,0l60.3,8.3c22,3,44.5,4.6,67,4.6l0,0c22.6,0,45.3-1.5,67.4-4.6
	l61.1-8.3c28.1-3.9,57.1-3.9,85.4,0l60.3,8.3c22,3,44.5,4.6,67,4.6l0,0c22.6,0,45.3-1.5,67.4-4.6l61.1-8.3c28.1-3.9,57.1-3.9,85.4,0
	l60.3,8.3c22,3,44.5,4.6,67,4.6l0,0c22.6,0,45.3-1.5,67.4-4.6l61.1-8.3c28.1-3.9,57.1-3.9,85.4,0l60.3,8.3c22,3,44.5,4.6,67,4.6l0,0
	c22.6,0,45.3-1.5,67.4-4.6l61.1-8.3c28.1-3.9,57.1-3.9,85.4,0l60.3,8.3c22,3,44.5,4.6,67,4.6l0,0c22.6,0,45.3-1.5,67.4-4.6l61.1-8.3
	c28.1-3.9,57.1-3.9,85.4,0l60.3,8.3c22,3,44.5,4.6,67,4.6l0,0c22.6,0,45.3-1.5,67.4-4.6l61.1-8.3c28.1-3.9,57.1-3.9,85.4,0l60.3,8.3
	c22,3,44.5,4.6,67,4.6l0,0c22.6,0,45.3-1.5,67.4-4.6l61.1-8.3c28.1-3.9,57.1-3.9,85.4,0l60.3,8.3c22,3,44.5,4.6,67,4.6l0,0
	c22.6,0,45.3-1.5,67.4-4.6l61.1-8.3c28.1-3.9,57.1-3.9,85.4,0l60.3,8.3c22,3,44.5,4.6,67,4.6l0,0c22.6,0,45.3-1.5,67.4-4.6l61.1-8.3
	c28.1-3.9,57.1-3.9,85.4,0l60.3,8.3c22,3,44.5,4.6,67,4.6l0,0c22.6,0,45.3-1.5,67.4-4.6l61.1-8.3c28.1-3.9,57.1-3.9,85.4,0l60.3,8.3
	c22,3,44.5,4.6,67,4.6l0,0c22.6,0,45.3-1.5,67.4-4.6l61.1-8.3c28.1-3.9,57.1-3.9,85.4,0l60.3,8.3c22,3,44.5,4.6,67,4.6l0,0
	c22.6,0,45.3-1.5,67.4-4.6l61.1-8.3c28.1-3.9,57.1-3.9,85.4,0l60.3,8.3c22,3,44.5,4.6,67,4.6l0,0c22.6,0,45.3-1.5,67.4-4.6l61.1-8.3
	c28.1-3.9,57.1-3.9,85.4,0l60.3,8.3c22,3,44.5,4.6,67,4.6v-67h-170.7h-170.6h-170.7h-170.6h-170.7H3533h-170.7h-171.4h-170.7h-170.6
	h-170.7h-170.6h-170.7H2167h-170.7h-170.6H1655h-170.6h-170.7h-170.6H972.4H801.8H631.1H460.6H289.8H119.3H-51.4H-222v66.9
	C-198.5,487.9-175.9,486.4-153.7,483.4z"/>
</svg>
